<?xml version="1.0" encoding="UTF-8"?>
<svg id="uuid-6eb86ee9-4f1c-43bb-a822-ca2ad3552c2d" data-name="Capa 1" xmlns="http://www.w3.org/2000/svg" viewBox="0 0 262.5 51.5">
  <defs>
    <style>
      .uuid-05bbacd8-1454-4651-9e7e-1a41c4901888 {
        fill: #f4d117;
      }

      .uuid-05bbacd8-1454-4651-9e7e-1a41c4901888, .uuid-6cd15ff1-88cd-422a-8cbf-f631f8bc0987, .uuid-109227a7-2f53-4862-b940-e20e95bbd224, .uuid-f2400edd-d1a1-402e-8352-3b5257ce0dee {
        stroke-width: 0px;
      }

      .uuid-6cd15ff1-88cd-422a-8cbf-f631f8bc0987 {
        fill: #d11128;
      }

      .uuid-109227a7-2f53-4862-b940-e20e95bbd224 {
        fill: #0a3794;
      }

      .uuid-f2400edd-d1a1-402e-8352-3b5257ce0dee {
        fill: #21376d;
      }

      .uuid-39a58d83-e533-4448-8efc-248667f61573 {
        fill: #e9b031;
        stroke: #e9b031;
        stroke-miterlimit: 10;
        stroke-width: .5px;
      }
    </style>
  </defs>
  <rect class="uuid-f2400edd-d1a1-402e-8352-3b5257ce0dee" x="44.4" y=".8" width="1.6" height="50.4"/>
  <g>
    <polygon class="uuid-f2400edd-d1a1-402e-8352-3b5257ce0dee" points="7 9.1 14.8 9.1 18.6 23.8 7 9.1"/>
    <polygon class="uuid-f2400edd-d1a1-402e-8352-3b5257ce0dee" points="34.1 9.1 26.3 9.1 22.5 23.8 34.1 9.1"/>
    <polygon class="uuid-f2400edd-d1a1-402e-8352-3b5257ce0dee" points="20.4 9.1 24.5 9.1 22.4 16.4 20.4 23.8 18.3 16.4 16.3 9.1 20.4 9.1"/>
    <polygon class="uuid-f2400edd-d1a1-402e-8352-3b5257ce0dee" points="20.4 8 17 8 18.7 6.1 20.4 4.2 22.1 6.1 23.8 8 20.4 8"/>
    <polygon class="uuid-f2400edd-d1a1-402e-8352-3b5257ce0dee" points="30.7 8 27.3 8 29 6.1 30.7 4.2 32.4 6.1 34.1 8 30.7 8"/>
    <polygon class="uuid-f2400edd-d1a1-402e-8352-3b5257ce0dee" points="10.4 8 7 8 8.7 6.1 10.4 4.2 12.1 6.1 13.8 8 10.4 8"/>
    <polygon class="uuid-f2400edd-d1a1-402e-8352-3b5257ce0dee" points="15.2 3.2 18.6 3.2 16.9 5.1 15.2 7 13.5 5.1 11.8 3.2 15.2 3.2"/>
    <polygon class="uuid-f2400edd-d1a1-402e-8352-3b5257ce0dee" points="25.5 3.2 28.9 3.2 27.2 5.1 25.5 7 23.8 5.1 22.1 3.2 25.5 3.2"/>
  </g>
  <path class="uuid-f2400edd-d1a1-402e-8352-3b5257ce0dee" d="M27.6,32.4l-7.3-3.3-7,3.3L1.2,25.7v25.5h38.3v-25.5l-11.9,6.7ZM36.7,48.8H4.2v-18.1l9,5,7.2-3.3,7.3,3.1,8.9-4.7v18Z"/>
  <polygon class="uuid-39a58d83-e533-4448-8efc-248667f61573" points="27.8 35.3 20.5 32.3 13.3 35.5 4.3 30.7 4.3 31.6 13.3 36.4 20.5 33.2 27.8 36.2 36.8 31.7 36.8 30.8 27.8 35.3"/>
  <g>
    <path class="uuid-f2400edd-d1a1-402e-8352-3b5257ce0dee" d="M22.3,40.8c-.2,0-.4,0-.5.2-.1.1-.2.3-.2.5s0,.4.2.5c.1.1.3.2.5.2s.4,0,.5-.2c.1-.1.2-.3.2-.5s0-.4-.2-.5c-.1-.1-.3-.2-.5-.2Z"/>
    <path class="uuid-f2400edd-d1a1-402e-8352-3b5257ce0dee" d="M28.1,38.2l-7.6-3.2-7.4,3.5-7-3.5v11.6h28.9v-11.7l-6.8,3.3ZM14.4,45h-1.4v-3.9l-.9.2-.3-1.1,1.5-.4h1v5.3ZM19.3,43.7c-.2.4-.5.8-.8,1-.4.2-.8.4-1.3.4s-1.3-.2-1.8-.6l.7-1c.3.3.7.4,1.1.4s.5,0,.7-.3c.2-.2.3-.5.3-.8-.3.3-.7.4-1.1.4s-.9-.2-1.3-.5-.5-.7-.5-1.2,0-.7.3-1c.2-.3.4-.5.7-.7.3-.2.7-.2,1.1-.2s.7,0,.9.1c.2,0,.5.3.7.5.4.4.6,1.1.6,1.9s0,1.1-.3,1.5ZM24.3,43.7c-.2.4-.5.8-.8,1-.4.2-.8.4-1.3.4s-1.3-.2-1.8-.6l.7-1c.3.3.7.4,1.1.4s.5,0,.7-.3c.2-.2.3-.5.3-.8-.3.3-.7.4-1.1.4s-.9-.2-1.3-.5-.5-.7-.5-1.2,0-.7.3-1c.2-.3.4-.5.7-.7.3-.2.7-.2,1.1-.2s.7,0,.9.1c.2,0,.5.3.7.5.4.4.6,1.1.6,1.9s0,1.1-.3,1.5ZM28.7,44.6c-.4.3-.9.5-1.6.5s-.8,0-1.2-.2-.7-.3-.9-.6l.8-1c.5.4.9.6,1.3.6s.4,0,.6-.2c.1-.1.2-.3.2-.5s0-.3-.2-.4c-.1-.1-.3-.2-.6-.2s-.5,0-.8.3l-.9-.5v-2.7h3.6v1.2h-2.4v.8c.2-.1.5-.2.8-.2s.4,0,.5,0c.2,0,.3.1.5.2.2,0,.3.2.4.3.1.1.2.3.3.5,0,.2,0,.4,0,.6,0,.6-.2,1-.6,1.4Z"/>
    <path class="uuid-f2400edd-d1a1-402e-8352-3b5257ce0dee" d="M17.4,40.8c-.2,0-.4,0-.5.2-.1.1-.2.3-.2.5s0,.4.2.5c.1.1.3.2.5.2s.4,0,.5-.2c.1-.1.2-.3.2-.5s0-.4-.2-.5c-.1-.1-.3-.2-.5-.2Z"/>
  </g>
  <g>
    <rect class="uuid-05bbacd8-1454-4651-9e7e-1a41c4901888" x="11.8" y=".8" width="8.5" height="1.1"/>
    <rect class="uuid-6cd15ff1-88cd-422a-8cbf-f631f8bc0987" x="24.6" y=".8" width="4.4" height="1.1"/>
    <rect class="uuid-109227a7-2f53-4862-b940-e20e95bbd224" x="20.3" y=".8" width="4.4" height="1.1"/>
  </g>
  <g>
    <path class="uuid-f2400edd-d1a1-402e-8352-3b5257ce0dee" d="M50.8,51.2v-5h1v5h-1Z"/>
    <path class="uuid-f2400edd-d1a1-402e-8352-3b5257ce0dee" d="M53.5,51.2v-5h.9l3,3.4v-3.4h1v5h-.8l-3.1-3.5v3.5h-1Z"/>
    <path class="uuid-f2400edd-d1a1-402e-8352-3b5257ce0dee" d="M62.1,51.3c-.9,0-1.7-.3-2.4-.8l.6-.6c.6.4,1.2.6,1.8.6s.6,0,.7-.2c.2-.1.3-.3.3-.5s0-.3-.3-.4c-.2-.1-.5-.2-1-.3-.7-.1-1.1-.3-1.4-.5-.3-.2-.4-.5-.4-1s.2-.8.5-1c.4-.3.8-.4,1.4-.4s1.5.2,2.1.6l-.5.7c-.5-.3-1-.5-1.5-.5s-.5,0-.7.2c-.2.1-.2.3-.2.4s0,.3.3.4c.2.1.5.2,1.1.3.6.1,1.1.3,1.4.5.3.2.4.5.4.9s-.2.8-.6,1.1c-.4.3-.9.4-1.5.4Z"/>
    <path class="uuid-f2400edd-d1a1-402e-8352-3b5257ce0dee" d="M66.7,51.2v-4.2h-1.8v-.8h4.6v.8h-1.8v4.2h-1Z"/>
    <path class="uuid-f2400edd-d1a1-402e-8352-3b5257ce0dee" d="M70.8,51.2v-5h1v5h-1Z"/>
    <path class="uuid-f2400edd-d1a1-402e-8352-3b5257ce0dee" d="M74.8,51.2v-4.2h-1.8v-.8h4.6v.8h-1.8v4.2h-1Z"/>
    <path class="uuid-f2400edd-d1a1-402e-8352-3b5257ce0dee" d="M81.2,51.3c-.8,0-1.3-.2-1.8-.6-.4-.4-.6-.9-.6-1.6v-2.9h1v2.8c0,.5.1.8.4,1,.3.2.6.4,1.1.4s.8-.1,1-.4c.3-.2.4-.6.4-1v-2.9h1v2.8c0,.7-.2,1.3-.6,1.7-.4.4-1,.6-1.8.6Z"/>
    <path class="uuid-f2400edd-d1a1-402e-8352-3b5257ce0dee" d="M86.6,51.2v-4.2h-1.8v-.8h4.6v.8h-1.8v4.2h-1Z"/>
    <path class="uuid-f2400edd-d1a1-402e-8352-3b5257ce0dee" d="M95.1,50.5c-.6.5-1.3.8-2.1.8s-1.6-.2-2.1-.7c-.6-.5-.8-1.1-.8-1.8s.3-1.3.8-1.8c.6-.5,1.3-.8,2.1-.8s1.6.2,2.1.7c.6.5.8,1.1.8,1.8s-.3,1.3-.8,1.8ZM91.6,50c.4.3.8.5,1.4.5s1-.2,1.4-.5c.4-.3.5-.8.5-1.3s-.2-.9-.5-1.3c-.4-.3-.8-.5-1.4-.5s-1,.2-1.4.5c-.4.3-.5.8-.5,1.3s.2.9.5,1.3Z"/>
    <path class="uuid-f2400edd-d1a1-402e-8352-3b5257ce0dee" d="M101.9,51.3c-.9,0-1.7-.3-2.4-.8l.6-.6c.6.4,1.2.6,1.8.6s.6,0,.7-.2c.2-.1.3-.3.3-.5s0-.3-.3-.4c-.2-.1-.5-.2-1-.3-.7-.1-1.1-.3-1.4-.5-.3-.2-.4-.5-.4-1s.2-.8.5-1c.4-.3.8-.4,1.4-.4s1.5.2,2.1.6l-.5.7c-.5-.3-1-.5-1.5-.5s-.5,0-.7.2c-.2.1-.2.3-.2.4s0,.3.3.4c.2.1.5.2,1.1.3.6.1,1.1.3,1.4.5.3.2.4.5.4.9s-.2.8-.6,1.1c-.4.3-.9.4-1.5.4Z"/>
    <path class="uuid-f2400edd-d1a1-402e-8352-3b5257ce0dee" d="M107.6,51.3c-.8,0-1.3-.2-1.8-.6-.4-.4-.6-.9-.6-1.6v-2.9h1v2.8c0,.5.1.8.4,1,.3.2.6.4,1.1.4s.8-.1,1-.4c.3-.2.4-.6.4-1v-2.9h1v2.8c0,.7-.2,1.3-.6,1.7-.4.4-1,.6-1.8.6Z"/>
    <path class="uuid-f2400edd-d1a1-402e-8352-3b5257ce0dee" d="M111.6,51.2v-5h2.2c.7,0,1.2.2,1.6.5.4.3.6.7.6,1.2s-.2.9-.6,1.2-1,.4-1.6.4h-1.1v1.6h-1ZM112.6,48.8h1.2c.4,0,.7,0,.9-.2.2-.2.3-.4.3-.7s-.1-.5-.3-.7-.5-.2-.9-.2h-1.2v1.8Z"/>
    <path class="uuid-f2400edd-d1a1-402e-8352-3b5257ce0dee" d="M117.2,51.2v-5h4.2v.8h-3.2v1.3h2.8v.8h-2.8v1.3h3.2v.8h-4.2Z"/>
    <path class="uuid-f2400edd-d1a1-402e-8352-3b5257ce0dee" d="M122.8,51.2v-5h2.5c.7,0,1.2.1,1.5.4.4.3.6.7.6,1.2s-.1.7-.4,1-.6.4-1,.5l1.5,1.9h-1.2l-1.4-1.7h-1.2v1.7h-1ZM123.7,48.7h1.5c.4,0,.6,0,.9-.2s.3-.4.3-.6-.1-.5-.3-.6c-.2-.1-.5-.2-.9-.2h-1.4v1.7Z"/>
    <path class="uuid-f2400edd-d1a1-402e-8352-3b5257ce0dee" d="M128.8,51.2v-5h1v5h-1Z"/>
    <path class="uuid-f2400edd-d1a1-402e-8352-3b5257ce0dee" d="M136.3,50.5c-.6.5-1.3.8-2.1.8s-1.6-.2-2.1-.7-.8-1.1-.8-1.8.3-1.3.8-1.8c.6-.5,1.3-.8,2.1-.8s1.6.2,2.1.7c.6.5.8,1.1.8,1.8s-.3,1.3-.8,1.8ZM132.9,50c.4.3.8.5,1.4.5s1-.2,1.4-.5c.4-.3.5-.8.5-1.3s-.2-.9-.5-1.3c-.4-.3-.8-.5-1.4-.5s-1,.2-1.4.5c-.4.3-.5.8-.5,1.3s.2.9.5,1.3Z"/>
    <path class="uuid-f2400edd-d1a1-402e-8352-3b5257ce0dee" d="M138.6,51.2v-5h2.5c.7,0,1.2.1,1.5.4.4.3.6.7.6,1.2s-.1.7-.4,1-.6.4-1,.5l1.5,1.9h-1.2l-1.4-1.7h-1.2v1.7h-1ZM139.6,48.7h1.5c.4,0,.6,0,.9-.2s.3-.4.3-.6-.1-.5-.3-.6c-.2-.1-.5-.2-.9-.2h-1.4v1.7Z"/>
    <path class="uuid-f2400edd-d1a1-402e-8352-3b5257ce0dee" d="M148.6,51.2v-4.2h-1.8v-.8h4.6v.8h-1.8v4.2h-1Z"/>
    <path class="uuid-f2400edd-d1a1-402e-8352-3b5257ce0dee" d="M152.6,51.2v-5h4.2v.8h-3.2v1.3h2.8v.8h-2.8v1.3h3.2v.8h-4.2Z"/>
    <path class="uuid-f2400edd-d1a1-402e-8352-3b5257ce0dee" d="M160.8,51.3c-.8,0-1.5-.2-2.1-.7s-.8-1.1-.8-1.8.3-1.3.8-1.8,1.2-.7,2.1-.7.9,0,1.3.2c.3.1.7.3,1,.6l-.6.6c-.5-.4-1-.6-1.6-.6s-1,.2-1.3.5c-.4.3-.5.8-.5,1.3s.2.9.5,1.3c.4.3.8.5,1.3.5s.6,0,.9-.2.5-.3.8-.5l.6.6c-.3.3-.7.5-1,.7-.4.1-.8.2-1.3.2Z"/>
    <path class="uuid-f2400edd-d1a1-402e-8352-3b5257ce0dee" d="M164.3,51.2v-5h.9l3,3.4v-3.4h1v5h-.8l-3.1-3.5v3.5h-1Z"/>
    <path class="uuid-f2400edd-d1a1-402e-8352-3b5257ce0dee" d="M175.7,50.5c-.6.5-1.3.8-2.1.8s-1.6-.2-2.1-.7c-.6-.5-.8-1.1-.8-1.8s.3-1.3.8-1.8c.6-.5,1.3-.8,2.1-.8s1.6.2,2.1.7c.6.5.8,1.1.8,1.8s-.3,1.3-.8,1.8ZM172.3,50c.4.3.8.5,1.4.5s1-.2,1.4-.5c.4-.3.5-.8.5-1.3s-.2-.9-.5-1.3c-.4-.3-.8-.5-1.4-.5s-1,.2-1.4.5c-.4.3-.5.8-.5,1.3s.2.9.5,1.3Z"/>
    <path class="uuid-f2400edd-d1a1-402e-8352-3b5257ce0dee" d="M178,51.2v-5h1v4.2h3v.8h-4Z"/>
    <path class="uuid-f2400edd-d1a1-402e-8352-3b5257ce0dee" d="M188,50.5c-.6.5-1.3.8-2.1.8s-1.6-.2-2.1-.7c-.6-.5-.8-1.1-.8-1.8s.3-1.3.8-1.8c.6-.5,1.3-.8,2.1-.8s1.6.2,2.1.7c.6.5.8,1.1.8,1.8s-.3,1.3-.8,1.8ZM184.5,50c.4.3.8.5,1.4.5s1-.2,1.4-.5c.4-.3.5-.8.5-1.3s-.2-.9-.5-1.3c-.4-.3-.8-.5-1.4-.5s-1,.2-1.4.5c-.4.3-.5.8-.5,1.3s.2.9.5,1.3ZM185.5,45.8l.9-1.2.9.3-1,.8h-.8Z"/>
    <path class="uuid-f2400edd-d1a1-402e-8352-3b5257ce0dee" d="M192.9,51.3c-.9,0-1.6-.2-2.1-.7-.5-.5-.8-1.1-.8-1.8s.3-1.3.8-1.8c.6-.5,1.3-.8,2.1-.8s.9,0,1.2.2c.3.1.7.3,1,.5l-.6.7c-.2-.2-.5-.3-.7-.4-.2,0-.5-.1-.9-.1-.5,0-1,.2-1.3.5-.4.3-.5.8-.5,1.2s.2.9.5,1.3.8.5,1.4.5,1-.1,1.4-.4v-.9h-1.4v-.8h2.4v2.1c-.7.5-1.5.8-2.4.8Z"/>
    <path class="uuid-f2400edd-d1a1-402e-8352-3b5257ce0dee" d="M196.8,51.2v-5h1v5h-1Z"/>
    <path class="uuid-f2400edd-d1a1-402e-8352-3b5257ce0dee" d="M202.1,51.3c-.8,0-1.5-.2-2.1-.7s-.8-1.1-.8-1.8.3-1.3.8-1.8,1.2-.7,2.1-.7.9,0,1.3.2c.3.1.7.3,1,.6l-.6.6c-.5-.4-1-.6-1.6-.6s-1,.2-1.3.5c-.4.3-.5.8-.5,1.3s.2.9.5,1.3c.4.3.8.5,1.3.5s.6,0,.9-.2.5-.3.8-.5l.6.6c-.3.3-.7.5-1,.7-.4.1-.8.2-1.3.2Z"/>
    <path class="uuid-f2400edd-d1a1-402e-8352-3b5257ce0dee" d="M210.3,50.5c-.6.5-1.3.8-2.1.8s-1.6-.2-2.1-.7-.8-1.1-.8-1.8.3-1.3.8-1.8c.6-.5,1.3-.8,2.1-.8s1.6.2,2.1.7c.6.5.8,1.1.8,1.8s-.3,1.3-.8,1.8ZM206.8,50c.4.3.8.5,1.4.5s1-.2,1.4-.5c.4-.3.5-.8.5-1.3s-.2-.9-.5-1.3c-.4-.3-.8-.5-1.4-.5s-1,.2-1.4.5c-.4.3-.5.8-.5,1.3s.2.9.5,1.3Z"/>
    <path class="uuid-f2400edd-d1a1-402e-8352-3b5257ce0dee" d="M215.1,51.2v-5h2.5c.7,0,1.2.1,1.5.4.4.3.6.7.6,1.2s-.1.7-.4,1-.6.4-1,.5l1.5,1.9h-1.2l-1.4-1.7h-1.2v1.7h-1ZM216.1,48.7h1.5c.4,0,.6,0,.9-.2s.3-.4.3-.6-.1-.5-.3-.6c-.2-.1-.5-.2-.9-.2h-1.4v1.7Z"/>
    <path class="uuid-f2400edd-d1a1-402e-8352-3b5257ce0dee" d="M221.1,51.2v-5h4.2v.8h-3.2v1.3h2.8v.8h-2.8v1.3h3.2v.8h-4.2Z"/>
    <path class="uuid-f2400edd-d1a1-402e-8352-3b5257ce0dee" d="M228.4,51.2v-2l-2.3-3h1.2l1.6,2.2,1.6-2.2h1.1l-2.3,3v2h-1Z"/>
    <path class="uuid-f2400edd-d1a1-402e-8352-3b5257ce0dee" d="M235.3,51.2v-5h2.1c.9,0,1.6.2,2.2.7.6.5.8,1.1.8,1.8s-.3,1.3-.8,1.8c-.6.5-1.3.7-2.2.7h-2.1ZM236.3,50.4h1.1c.6,0,1.1-.2,1.4-.5.4-.3.5-.7.5-1.2s-.2-.9-.5-1.2c-.4-.3-.8-.5-1.4-.5h-1.1v3.4Z"/>
    <path class="uuid-f2400edd-d1a1-402e-8352-3b5257ce0dee" d="M240.9,51.2l2.5-5h.9l2.5,5h-1.1l-.6-1.2h-2.7l-.6,1.2h-1ZM242.9,49.2h2l-1-2-1,2Z"/>
    <path class="uuid-f2400edd-d1a1-402e-8352-3b5257ce0dee" d="M249,51.2l-2.4-5h1.1l1.7,3.8,1.7-3.8h1.1l-2.4,5h-.9Z"/>
    <path class="uuid-f2400edd-d1a1-402e-8352-3b5257ce0dee" d="M253.4,51.2v-5h1v5h-1Z"/>
    <path class="uuid-f2400edd-d1a1-402e-8352-3b5257ce0dee" d="M256.1,51.2v-5h2.1c.9,0,1.6.2,2.2.7.6.5.8,1.1.8,1.8s-.3,1.3-.8,1.8c-.6.5-1.3.7-2.2.7h-2.1ZM257.1,50.4h1.1c.6,0,1.1-.2,1.4-.5.4-.3.5-.7.5-1.2s-.2-.9-.5-1.2c-.4-.3-.8-.5-1.4-.5h-1.1v3.4Z"/>
  </g>
  <g>
    <path class="uuid-f2400edd-d1a1-402e-8352-3b5257ce0dee" d="M50.9,41.3V.8h8.9v40.5h-8.9Z"/>
    <path class="uuid-f2400edd-d1a1-402e-8352-3b5257ce0dee" d="M84.3,41.8c-6.6,0-12.3-2.2-17.2-6.5l5.3-6.3c4,3.3,8,4.9,12.1,4.9s3.2-.3,4.3-1c1-.7,1.6-1.7,1.6-2.9s-.5-2.1-1.6-2.8c-1.1-.7-3.3-1.5-6.5-2.3-2.3-.6-4.2-1.1-5.6-1.7-1.4-.6-2.8-1.3-4.1-2.2-1.3-.9-2.2-2.1-2.8-3.5-.6-1.4-.9-3.1-.9-5.1,0-3.7,1.3-6.6,4-8.8,2.6-2.2,6-3.4,10.2-3.4s10.7,1.7,15,5.1l-4.6,6.7c-3.8-2.7-7.3-4-10.5-4s-2.9.3-3.8,1c-.9.7-1.4,1.6-1.4,2.6s.6,2.3,1.7,2.9c1.1.7,3.5,1.4,7.1,2.4,4.4,1.2,7.6,2.6,9.7,4.4,2.1,1.8,3.1,4.4,3.1,7.8s-1.4,7-4.1,9.2c-2.7,2.2-6.3,3.3-10.8,3.3Z"/>
    <path class="uuid-f2400edd-d1a1-402e-8352-3b5257ce0dee" d="M115.4,41.3V9h-12.3V.8h33.5v8.2h-12.3v32.2h-8.9Z"/>
    <path class="uuid-f2400edd-d1a1-402e-8352-3b5257ce0dee" d="M143.4,41.3V.8h18.5c5.1,0,9.1,1.4,11.8,4.1,2.3,2.3,3.5,5.4,3.5,9.4,0,6.2-2.9,10.4-8.7,12.5l9.9,14.4h-10.4l-8.8-12.9h-6.9v12.9h-8.9ZM152.3,20.5h9c2.2,0,3.8-.5,5-1.6,1.2-1.1,1.8-2.5,1.8-4.2s-.6-3.3-1.8-4.3c-1.2-1-2.9-1.5-5.1-1.5h-8.8v11.6Z"/>
    <path class="uuid-f2400edd-d1a1-402e-8352-3b5257ce0dee" d="M185.2,41.3V.8h30.5v7.9h-21.7v8.2h19.1v7.9h-19.1v8.5h22v7.9h-30.8Z"/>
    <path class="uuid-f2400edd-d1a1-402e-8352-3b5257ce0dee" d="M223.9,41.3V.8h15.8c6.3,0,11.5,1.9,15.5,5.7,4,3.8,6,8.7,6,14.5s-2,10.6-6,14.4c-4,3.9-9.2,5.8-15.5,5.8h-15.8ZM232.8,33.2h6.9c3.7,0,6.6-1.1,8.8-3.4,2.2-2.3,3.4-5.2,3.4-8.8s-1.1-6.5-3.4-8.8c-2.3-2.3-5.2-3.4-8.8-3.4h-6.9v24.4Z"/>
  </g>
</svg>